<svg
            xmlns="http://www.w3.org/2000/svg"
            xmlns:xlink="http://www.w3.org/1999/xlink"
            viewBox="0 0 250 50"            
        >
            <g id="layer1"  groupmode="layer" transform="translate(0 -552.36)">
                <g
                    transform="matrix(3.8203 1.8162 -1.8162 3.3 -3480.8 -4033.7)"
                >
                    <path
                        style="stroke:#000000;stroke-width:.59849px;fill:#e7ad54"
                        d="m1249 708.13 39.354-18.934 1.4016 0.50139-0.3865 1.9235-39.7 18.354-1.0776-0.22251z"
                    />
                    <path
                        style="stroke:#000000;stroke-width:.59849px;fill:#ccbeca"
                        d="m1288.1 688.84-0.9412-4.4765 13.442-0.62682-8.0538 9.8479-3.1385-1.4324z"
                    />
                    <path
                        style="stroke:#000000;stroke-width:.59849px;fill:#953713"
                        d="m1260.2 702.29-5.3491-2.2628 0.065 1.1387-1.9705-0.32238 0.029 1.1887-2.0014-0.39978 0.2131 1.6743-2.0186-0.33283-1.1466 0.8574 3.5576 2.7418z"
                    />
                    <path
                        style="stroke:#000000;stroke-width:.59849px;fill:#953713"
                        d="m1261.3 704.83-2.3105 4.2557-1.1531 1.644-0.986-0.92959-0.7204 1.4094-1.0363-0.69246-0.772 1.3818-0.9458-0.47724-0.9853 1.3373-0.7726-0.603-1.1847 0.91704 1.5177-4.0574z"
                    />
                </g>                
            </g>           
        </svg>