<svg
            xmlns="http://www.w3.org/2000/svg"
            xmlns:xlink="http://www.w3.org/1999/xlink"
            viewBox="0 0 500 500"            
        >
            <g id="layer1"  groupmode="layer" transform="translate(0 -552.36)">
                <g
                    transform="matrix(4 1.4872 -1.4872 3.96 300 -1351.1)"
                >
                    <path
                        style="stroke:#000000;stroke-width:.54312px;fill:#ca8b13"
                        d="m176.27 476.12-0.27431-3.4975s-2.1945-4.5262-8.641-6.5836c-6.4464-2.0574-14.127-2.4003-15.705-4.1833-1.5773-1.7831-1.8516-1.9888-1.2344-2.7432 0.61721-0.75436 2.2631-2.5374 1.5773-3.0175-0.68579-0.48005-0.68579-1.1658-1.9202-0.89152-1.2344 0.27431-2.7432 0.9601-3.2232 3.5661-0.48005 2.606-0.27431 3.909 0.54863 4.8005 0.82295 0.89153 3.2232 2.7432 7.4066 3.6347 4.1833 0.89153 7.6123 1.5773 9.5325 3.4975s3.4975 3.429 4.0462 4.3891c0.54863 0.96011-0.3429 1.5773 0.0686 2.0574 0.41147 0.48006 0.82295 1.2344 1.8516 1.1658 0.16926-0.0113 1.526-0.90013 2.3179-0.28609 0.83234 0.64536-0.75564 4.1139 1.6789 2.9174 2.2157-1.089-0.9274-2.761-0.61263-3.6153 0.68114-1.172 1.7438-0.40929 2.5822-1.2106z"
                    />
                    <path
                        d="m177.1 479.59 1.7015 2.2471s1.097 3.8896-1.6771 8.5651c-2.7742 4.6755-7.2046 8.9799-7.2006 10.892 0.004 1.9126-0.0509 2.1826 0.72229 2.3063 0.77325 0.12376 2.7132 0.3165 2.5575 0.97077-0.15576 0.65427 0.21017 1.0662-0.67764 1.5601-0.88782 0.49392-2.16 0.88706-3.8388-0.42205-1.6789-1.3091-2.2506-2.2015-2.232-3.1761s0.47226-3.3675 2.5092-6.1352c2.037-2.7677 3.7306-5.0092 3.8593-7.1872 0.12875-2.178 0.2711-3.9258 0.0883-4.7952-0.18278-0.86942-1.0476-0.76443-1.0566-1.2723-0.009-0.5079-0.16439-1.1806 0.49007-1.6883 0.65446-0.50771 4.7546-1.8655 4.7546-1.8655z"
                        style="stroke:#000000;stroke-width:.43635px;fill:#ca8b13"                        
                    />
                    <path
                        style="stroke:#b9b9b9;stroke-width:.59849px;fill:none"
                        d="m169.92 502.7h-3.5518c-6.4706-14.078-12.925-28.038-19.901-41.89l3.9179-0.46715"
                    />
                </g>
            </g>           
        </svg>