
<svg width="512" height="512" xmlns="http://www.w3.org/2000/svg" preserveAspectRatio="xMidYMid meet" class="iconify iconify--fxemoji" role="img" aria-hidden="true">
    <g>
        <path stroke="null" id="svg_1" d="m395.46517,183.34602a4.52369,-3.5821 0 0 1 -4.52369,3.5821c0,11.97035 -5.30608,21.02862 -16.69889,28.50873c-10.65438,6.99635 -25.49295,11.97035 -41.20267,17.23638c-20.87706,6.9984 -42.46585,14.23492 -59.53268,27.43069c-19.66816,15.2072 -29.22823,35.60401 -29.22823,62.35512a4.52369,-3.5821 0 0 1 9.04739,0c0,-24.71989 8.66912,-43.4396 26.50195,-57.22829c15.84413,-12.25146 36.63331,-19.21983 56.73833,-25.95964c32.61627,-10.93256 63.42133,-21.25992 63.42133,-52.34299a4.52283,-3.58142 0 0 1 -4.52283,-3.5821z" fill="#597B91"/>
        <path stroke-dasharray="5,2,2,2,2,2" stroke="null" id="svg_2" d="m253.51632,298.91986c0.14561,1.1618 0.28694,2.30738 0.41389,3.41099c0.12267,1.02253 0.23494,2.01168 0.34078,2.94837c0.10462,0.93764 0.21414,1.82377 0.28419,2.64218c0.14255,1.63586 0.13093,2.99988 0.07403,3.95469c-0.05598,0.95481 -0.16458,1.49946 -0.16458,1.49946c-1.51883,7.63944 -4.73607,9.99261 -7.18609,5.25671a5.29925,16.52367 0 0 1 -1.68586,-5.25671s-0.10829,-0.54561 -0.16458,-1.49946c-0.0569,-0.95481 -0.06852,-2.31787 0.07403,-3.95469c0.07005,-0.81841 0.17926,-1.70454 0.28419,-2.64218c0.10584,-0.93764 0.21811,-1.92584 0.34078,-2.94837c0.12695,-1.10361 0.26828,-2.24919 0.41389,-3.41099c-10.40761,-13.27578 -27.5611,-77.36448 -32.69638,-137.52902a37.69095,117.52473 0 0 1 -1.49864,-32.89185c0.00031,-64.8928 16.87114,-117.49897 37.68269,-117.49897s37.68238,52.60617 37.68238,117.49802a37.69095,117.52473 0 0 1 -1.49864,32.89185c-5.13528,60.16453 -22.28847,124.25419 -32.69608,137.52997z" fill="#c9504c"/>
    </g>
</svg>